<svg version="1.1" style="font-family:&quot;Lucida Grande&quot;, &quot;Lucida Sans Unicode&quot;, Arial, Helvetica, sans-serif;font-size:12px;" xmlns="http://www.w3.org/2000/svg" width="601" height="400"><desc>Created with Highcharts 4.0.4</desc><defs><clipPath id="highcharts-1"><rect x="0" y="0" width="552" height="354"></rect></clipPath></defs><rect x="0" y="0" width="601" height="400" strokeWidth="0" fill="#FFFFFF" class=" highcharts-background"></rect><g class="highcharts-grid" zIndex="1"></g><g class="highcharts-grid" zIndex="1"><path fill="none" d="M 39 9.5 L 591 9.5" stroke="#C0C0C0" stroke-width="1" zIndex="1" opacity="1"></path><path fill="none" d="M 39 81.5 L 591 81.5" stroke="#C0C0C0" stroke-width="1" zIndex="1" opacity="1"></path><path fill="none" d="M 39 152.5 L 591 152.5" stroke="#C0C0C0" stroke-width="1" zIndex="1" opacity="1"></path><path fill="none" d="M 39 222.5 L 591 222.5" stroke="#C0C0C0" stroke-width="1" zIndex="1" opacity="1"></path><path fill="none" d="M 39 293.5 L 591 293.5" stroke="#C0C0C0" stroke-width="1" zIndex="1" opacity="1"></path><path fill="none" d="M 39 364.5 L 591 364.5" stroke="#C0C0C0" stroke-width="1" zIndex="1" opacity="1"></path></g><g class="highcharts-axis" zIndex="2"><path fill="none" d="M 259.5 364 L 259.5 374" stroke="#C0D0E0" stroke-width="1" opacity="1"></path><path fill="none" d="M 369.5 364 L 369.5 374" stroke="#C0D0E0" stroke-width="1" opacity="1"></path><path fill="none" d="M 480.5 364 L 480.5 374" stroke="#C0D0E0" stroke-width="1" opacity="1"></path><path fill="none" d="M 591.5 364 L 591.5 374" stroke="#C0D0E0" stroke-width="1" opacity="1"></path><path fill="none" d="M 148.5 364 L 148.5 374" stroke="#C0D0E0" stroke-width="1" opacity="1"></path><path fill="none" d="M 38.5 364 L 38.5 374" stroke="#C0D0E0" stroke-width="1" opacity="1"></path><path fill="none" d="M 39 364.5 L 591 364.5" stroke="#C0D0E0" stroke-width="1" zIndex="7" visibility="visible"></path></g><g class="highcharts-axis" zIndex="2"></g><g class="highcharts-series-group" zIndex="3"><g class="highcharts-series highcharts-tracker" visibility="visible" zIndex="0.1" transform="translate(39,10) scale(1 1)" style="" clip-path="url(#highcharts-1)"><rect x="28.5" y="106.5" width="53" height="177" fill="#7cb5ec" rx="0" ry="0" stroke="#FFFFFF" stroke-width="1"></rect><rect x="138.5" y="177.5" width="53" height="106" fill="#7cb5ec" rx="0" ry="0" stroke="#FFFFFF" stroke-width="1"></rect><rect x="249.5" y="106.5" width="53" height="142" fill="#7cb5ec" rx="0" ry="0" stroke="#FFFFFF" stroke-width="1"></rect><rect x="359.5" y="35.5" width="53" height="248" fill="#7cb5ec" rx="0" ry="0" stroke="#FFFFFF" stroke-width="1"></rect><rect x="469.5" y="248.5" width="53" height="71" fill="#7cb5ec" rx="0" ry="0" stroke="#FFFFFF" stroke-width="1"></rect></g><g class="highcharts-markers" visibility="visible" zIndex="0.1" transform="translate(39,10) scale(1 1)" clip-path="none"></g><g class="highcharts-series highcharts-tracker" visibility="visible" zIndex="0.1" transform="translate(39,10) scale(1 1)" style="" clip-path="url(#highcharts-1)"><rect x="28.5" y="283.5" width="53" height="71" fill="#434348" rx="0" ry="0" stroke="#FFFFFF" stroke-width="1"></rect><rect x="138.5" y="283.5" width="53" height="71" fill="#434348" rx="0" ry="0" stroke="#FFFFFF" stroke-width="1"></rect><rect x="249.5" y="248.5" width="53" height="106" fill="#434348" rx="0" ry="0" stroke="#FFFFFF" stroke-width="1"></rect><rect x="359.5" y="283.5" width="53" height="71" fill="#434348" rx="0" ry="0" stroke="#FFFFFF" stroke-width="1"></rect><rect x="469.5" y="319.5" width="53" height="35" fill="#434348" rx="0" ry="0" stroke="#FFFFFF" stroke-width="1"></rect></g><g class="highcharts-markers" visibility="visible" zIndex="0.1" transform="translate(39,10) scale(1 1)" clip-path="none"></g></g><g class="highcharts-legend" zIndex="7" transform="translate(352,35)"><rect x="0.5" y="0.5" width="207" height="24" strokeWidth="1" stroke="#CCC" stroke-width="1" fill="white" visibility="visible"></rect><g zIndex="1"><g><g class="highcharts-legend-item" zIndex="1" transform="translate(8,3)"><text x="21" style="color:#333333;font-size:12px;font-weight:bold;cursor:pointer;fill:#333333;" text-anchor="start" zIndex="2" y="15">Announced</text><rect x="0" y="4" width="16" height="12" zIndex="3" fill="#7cb5ec"></rect></g><g class="highcharts-legend-item" zIndex="1" transform="translate(118.40625,3)"><text x="21" y="15" style="color:#333333;font-size:12px;font-weight:bold;cursor:pointer;fill:#333333;" text-anchor="start" zIndex="2">Estimated</text><rect x="0" y="4" width="16" height="12" zIndex="3" fill="#434348"></rect></g></g></g></g><g class="highcharts-axis-labels highcharts-xaxis-labels" zIndex="7"><text x="94.2" text-anchor="middle" style="width:90px;color:#606060;cursor:default;font-size:11px;fill:#606060;" y="384" opacity="1">January</text><text x="204.60000000000002" text-anchor="middle" style="width:90px;color:#606060;cursor:default;font-size:11px;fill:#606060;" y="384" opacity="1">February</text><text x="315" text-anchor="middle" style="width:90px;color:#606060;cursor:default;font-size:11px;fill:#606060;" y="384" opacity="1">March</text><text x="425.40000000000003" text-anchor="middle" style="width:90px;color:#606060;cursor:default;font-size:11px;fill:#606060;" y="384" opacity="1">April</text><text x="535.8" text-anchor="middle" style="width:90px;color:#606060;cursor:default;font-size:11px;fill:#606060;" y="384" opacity="1">May</text></g><g class="highcharts-axis-labels highcharts-yaxis-labels" zIndex="7"><text x="24" text-anchor="end" style="width:178px;color:#606060;cursor:default;font-size:11px;fill:#606060;" y="369.515625" opacity="1">0</text><text x="24" text-anchor="end" style="width:178px;color:#606060;cursor:default;font-size:11px;fill:#606060;" y="298.715625" opacity="1">2</text><text x="24" text-anchor="end" style="width:178px;color:#606060;cursor:default;font-size:11px;fill:#606060;" y="227.91562499999998" opacity="1">4</text><text x="24" text-anchor="end" style="width:178px;color:#606060;cursor:default;font-size:11px;fill:#606060;" y="157.11562500000002" opacity="1">6</text><text x="24" text-anchor="end" style="width:178px;color:#606060;cursor:default;font-size:11px;fill:#606060;" y="86.31562500000001" opacity="1">8</text><text x="24" text-anchor="end" style="width:178px;color:#606060;cursor:default;font-size:11px;fill:#606060;" y="15.515625" opacity="1">10</text></g><g class="highcharts-tooltip" zIndex="8" style="cursor:default;padding:0;white-space:nowrap;" transform="translate(156,-9999)" opacity="0" visibility="visible"><path fill="none" d="M 3.5 0.5 L 94.5 0.5 C 97.5 0.5 97.5 0.5 97.5 3.5 L 97.5 59.5 C 97.5 62.5 97.5 62.5 94.5 62.5 L 55.5 62.5 49.5 68.5 43.5 62.5 3.5 62.5 C 0.5 62.5 0.5 62.5 0.5 59.5 L 0.5 3.5 C 0.5 0.5 0.5 0.5 3.5 0.5" isShadow="true" stroke="black" stroke-opacity="0.049999999999999996" stroke-width="5" transform="translate(1, 1)" width="97" height="62"></path><path fill="none" d="M 3.5 0.5 L 94.5 0.5 C 97.5 0.5 97.5 0.5 97.5 3.5 L 97.5 59.5 C 97.5 62.5 97.5 62.5 94.5 62.5 L 55.5 62.5 49.5 68.5 43.5 62.5 3.5 62.5 C 0.5 62.5 0.5 62.5 0.5 59.5 L 0.5 3.5 C 0.5 0.5 0.5 0.5 3.5 0.5" isShadow="true" stroke="black" stroke-opacity="0.09999999999999999" stroke-width="3" transform="translate(1, 1)" width="97" height="62"></path><path fill="none" d="M 3.5 0.5 L 94.5 0.5 C 97.5 0.5 97.5 0.5 97.5 3.5 L 97.5 59.5 C 97.5 62.5 97.5 62.5 94.5 62.5 L 55.5 62.5 49.5 68.5 43.5 62.5 3.5 62.5 C 0.5 62.5 0.5 62.5 0.5 59.5 L 0.5 3.5 C 0.5 0.5 0.5 0.5 3.5 0.5" isShadow="true" stroke="black" stroke-opacity="0.15" stroke-width="1" transform="translate(1, 1)" width="97" height="62"></path><path fill="rgba(249, 249, 249, .85)" d="M 3.5 0.5 L 94.5 0.5 C 97.5 0.5 97.5 0.5 97.5 3.5 L 97.5 59.5 C 97.5 62.5 97.5 62.5 94.5 62.5 L 55.5 62.5 49.5 68.5 43.5 62.5 3.5 62.5 C 0.5 62.5 0.5 62.5 0.5 59.5 L 0.5 3.5 C 0.5 0.5 0.5 0.5 3.5 0.5" stroke="#7cb5ec" stroke-width="1"></path><text x="8" zIndex="1" style="font-size:12px;color:#333333;fill:#333333;" y="21"><tspan style="font-weight:bold">February</tspan><tspan x="8" dy="16">Announced: 3</tspan><tspan x="8" dy="16">Total: 5</tspan></text></g><text x="591" text-anchor="end" zIndex="8" style="cursor:pointer;color:#909090;font-size:9px;fill:#909090;" y="395">Highcharts.com</text></svg>