<svg version="1.1" style="font-family:&quot;Lucida Grande&quot;, &quot;Lucida Sans Unicode&quot;, Arial, Helvetica, sans-serif;font-size:12px;" xmlns="http://www.w3.org/2000/svg" width="1284" height="325"><desc>Created with Highstock 2.0.4</desc><defs><clipPath id="highcharts-1"><rect x="0" y="0" width="1264" height="240"></rect></clipPath><clipPath id="highcharts-2"><rect x="0" y="0" width="1264" height="240"></rect></clipPath><clipPath id="highcharts-4"><rect x="0" y="0" width="1264" height="40"></rect></clipPath></defs><rect x="0" y="0" width="1284" height="325" strokeWidth="0" fill="#FFFFFF" class=" highcharts-background"></rect><path fill="none" d="M 10 165 L 1274 165" stroke="silver" stroke-width="2"></path><text x="10" y="25" style="color:#666;fill:#666;">Zoom</text><g class="highcharts-input-group" transform="translate(973,10)"><g style="fill:#666;" transform="translate(0,0)"><text x="2" zIndex="1" style="font-size:12px;font-family:&quot;Lucida Grande&quot;, &quot;Lucida Sans Unicode&quot;, Arial, Helvetica, sans-serif;color:#666;fill:#666;" y="15">From</text></g><g style="text-align:center;" transform="translate(39,0)"><rect x="0.5" y="0.5" width="94" height="21" strokeWidth="1" fill="none" stroke="silver" stroke-width="1"></rect><text x="6.921875" zIndex="1" style="font-size:12px;font-family:&quot;Lucida Grande&quot;, &quot;Lucida Sans Unicode&quot;, Arial, Helvetica, sans-serif;color:#444;fill:#444;" y="15"><tspan>May 10, 2012</tspan></text></g><g style="fill:#666;" transform="translate(143,0)"><text x="2" zIndex="1" style="font-size:12px;font-family:&quot;Lucida Grande&quot;, &quot;Lucida Sans Unicode&quot;, Arial, Helvetica, sans-serif;color:#666;fill:#666;" y="15">To</text></g><g style="text-align:center;" transform="translate(167,0)"><rect x="0.5" y="0.5" width="94" height="21" strokeWidth="1" fill="none" stroke="silver" stroke-width="1"></rect><text x="6.921875" zIndex="1" style="font-size:12px;font-family:&quot;Lucida Grande&quot;, &quot;Lucida Sans Unicode&quot;, Arial, Helvetica, sans-serif;color:#444;fill:#444;" y="15"><tspan>May 10, 2013</tspan></text></g></g><g class="highcharts-button" style="cursor:default;" stroke-linecap="round" transform="translate(1250,10)"><title>Chart context menu</title><rect x="0.5" y="0.5" width="24" height="22" strokeWidth="1" fill="white" stroke="none" stroke-width="1" rx="2" ry="2"></rect><path fill="#E0E0E0" d="M 6 6.5 L 20 6.5 M 6 11.5 L 20 11.5 M 6 16.5 L 20 16.5" stroke="#666" stroke-width="3" zIndex="1"></path><text x="0" zIndex="1" style="color:black;fill:black;" y="13"></text></g><path fill="rgba(124,181,236,0.25)" d="M 0 0"></path><path fill="rgba(67,67,72,0.25)" d="M 0 0"></path><path fill="rgba(144,237,125,0.25)" d="M 0 0"></path><g class="highcharts-grid" zIndex="1"></g><g class="highcharts-grid" zIndex="1"><path fill="none" d="M 10 44.5 L 1274 44.5" stroke="#C0C0C0" stroke-width="1" zIndex="1" opacity="1"></path><path fill="none" d="M 10 105.5 L 1274 105.5" stroke="#C0C0C0" stroke-width="1" zIndex="1" opacity="1"></path><path fill="none" d="M 10 165.5 L 1274 165.5" stroke="#C0C0C0" stroke-width="1" zIndex="1" opacity="1"></path><path fill="none" d="M 10 225.5 L 1274 225.5" stroke="#C0C0C0" stroke-width="1" zIndex="1" opacity="1"></path><path fill="none" d="M 10 285.5 L 1274 285.5" stroke="#C0C0C0" stroke-width="1" zIndex="1" opacity="1"></path></g><g class="highcharts-grid" zIndex="1"></g><g class="highcharts-axis" zIndex="2"><path fill="none" d="M 191.5 285 L 191.5 295" stroke="#C0D0E0" stroke-width="1" opacity="1"></path><path fill="none" d="M 287.5 285 L 287.5 295" stroke="#C0D0E0" stroke-width="1" opacity="1"></path><path fill="none" d="M 388.5 285 L 388.5 295" stroke="#C0D0E0" stroke-width="1" opacity="1"></path><path fill="none" d="M 484.5 285 L 484.5 295" stroke="#C0D0E0" stroke-width="1" opacity="1"></path><path fill="none" d="M 585.5 285 L 585.5 295" stroke="#C0D0E0" stroke-width="1" opacity="1"></path><path fill="none" d="M 676.5 285 L 676.5 295" stroke="#C0D0E0" stroke-width="1" opacity="1"></path><path fill="none" d="M 772.5 285 L 772.5 295" stroke="#C0D0E0" stroke-width="1" opacity="1"></path><path fill="none" d="M 863.5 285 L 863.5 295" stroke="#C0D0E0" stroke-width="1" opacity="1"></path><path fill="none" d="M 960.5 285 L 960.5 295" stroke="#C0D0E0" stroke-width="1" opacity="1"></path><path fill="none" d="M 1056.5 285 L 1056.5 295" stroke="#C0D0E0" stroke-width="1" opacity="1"></path><path fill="none" d="M 1152.5 285 L 1152.5 295" stroke="#C0D0E0" stroke-width="1" opacity="1"></path><path fill="none" d="M 1253.5 285 L 1253.5 295" stroke="#C0D0E0" stroke-width="1" opacity="1"></path><path fill="none" d="M 90.5 285 L 90.5 295" stroke="#C0D0E0" stroke-width="1" opacity="1"></path><path fill="none" d="M 10 285.5 L 1274 285.5" stroke="#C0D0E0" stroke-width="1" zIndex="7" visibility="visible"></path></g><g class="highcharts-axis" zIndex="2"></g><g class="highcharts-axis" zIndex="2"></g><g class="highcharts-axis" zIndex="2"></g><path fill="none" d="M 151.5 45 L 151.5 285" stroke="#C0C0C0" stroke-width="1" zIndex="2" visibility="hidden"></path><g class="highcharts-series-group" zIndex="3"><g class="highcharts-series" visibility="visible" zIndex="0.1" transform="translate(10,45) scale(1 1)" clip-path="url(http://www.highcharts.com/stock/demo/compare#highcharts-2)"><path fill="none" d="M -5.056 119.8438516590761 L 0 120 L 5.056 116.72088484059856 L 10.112 120.46844502277162 L 15.168 124.13793103448275 L 20.224 126.55823031880287 L 25.28 127.96356538711777 L 30.336 131.47690305790502 L 35.391999999999996 127.72934287573193 L 40.448 127.65126870526997 L 45.504 132.72608978529604 L 50.56 133.03838646714377 L 55.616 133.11646063760577 L 60.672 129.21275211450876 L 65.728 130.93038386467143 L 70.78399999999999 132.10149642160053 L 75.84 137.878985035784 L 80.896 137.0982433311646 L 85.952 137.48861418347428 L 91.008 130.8523096942095 L 96.064 131.78919973975275 L 101.12 128.51008458035136 L 106.176 134.36564736499676 L 111.232 131.32075471698113 L 116.288 132.56994144437215 L 121.344 130.93038386467143 L 126.39999999999999 125.62134027325959 L 131.456 127.02667534157449 L 136.512 120.31229668184777 L 141.56799999999998 118.5165907612232 L 146.624 124.68445022771635 L 151.68 120.31229668184777 L 156.736 126.8705270006506 L 161.792 125.62134027325959 L 166.84799999999998 124.45022771633052 L 171.904 126.48015614834092 L 176.96 121.17111255692909 L 182.016 121.4053350683149 L 187.072 119.8438516590761 L 192.128 120.31229668184777 L 197.184 124.37215354586858 L 202.24 125.77748861418347 L 207.296 127.80741704619389 L 212.352 131.24268054651918 L 217.408 136.4736499674691 L 222.464 130.54001301236173 L 227.51999999999998 130.14964216005203 L 232.576 128.43201040988936 L 237.632 122.26415094339622 L 242.688 120.6245933636955 L 247.744 124.84059856864019 L 252.79999999999998 131.39882888744302 L 257.856 132.41379310344826 L 262.912 134.91216655823033 L 267.968 132.33571893298637 L 273.024 127.65126870526997 L 278.08 128.58815875081325 L 283.13599999999997 129.91541964866627 L 288.192 130.38386467143786 L 293.248 132.10149642160053 L 298.304 127.72934287573193 L 303.36 126.16785946649316 L 308.416 123.74756018217303 L 313.472 123.2010409889395 L 318.528 121.87378009108653 L 323.584 122.49837345478203 L 328.64 122.73259596616786 L 333.69599999999997 124.76252439817827 L 338.752 124.21600520494471 L 343.808 119.68770331815222 L 348.864 118.75081327260897 L 353.92 120 L 358.976 119.53155497722832 L 364.032 121.56148340923878 L 369.08799999999997 123.74756018217303 L 374.144 121.4053350683149 L 379.2 120.39037085230969 L 384.256 120.85881587508133 L 389.312 120.70266753415746 L 394.368 123.27911515940143 L 399.424 119.37540663630445 L 404.48 122.81067013662978 L 409.536 122.73259596616786 L 414.592 115.31554977228366 L 419.64799999999997 118.36044242029931 L 424.704 120.15614834092389 L 429.76 119.60962914769028 L 434.816 119.68770331815222 L 439.872 118.4385165907612 L 444.928 116.3305139882889 L 449.984 116.3305139882889 L 455.03999999999996 116.56473649967467 L 460.096 117.57970071567988 L 465.152 114.45673389720234 L 470.20799999999997 116.48666232921275 L 475.264 119.68770331815222 L 480.32 122.73259596616786 L 485.376 124.52830188679246 L 490.432 124.52830188679246 L 495.488 127.65126870526997 L 500.544 129.75927130774238 L 505.59999999999997 128.43201040988936 L 510.656 126.8705270006506 L 515.712 125.54326610279763 L 520.768 126.94860117111253 L 525.824 127.49512036434612 L 530.88 131.39882888744302 L 535.936 133.74105400130122 L 540.992 133.97527651268706 L 546.048 132.02342225113856 L 551.104 129.60312296681846 L 556.16 129.75927130774238 L 561.216 128.97852960312298 L 566.2719999999999 129.68119713728044 L 571.328 136.39557579700715 L 576.384 141.39232270657124 L 581.4399999999999 141.0019518542615 L 586.496 142.17306441119064 L 591.552 142.32921275211453 L 596.608 139.75276512687051 L 601.664 137.17631750162656 L 606.72 129.52504879635654 L 611.776 129.68119713728044 L 616.832 128.6662329212752 L 621.888 126.8705270006506 L 626.944 132.96031229668188 L 632 135.0683148991542 L 637.056 134.91216655823033 L 642.112 139.6746909564086 L 647.168 148.49707221860768 L 652.2239999999999 150.44892648015616 L 657.28 151.85426154847107 L 662.336 152.9472999349382 L 667.3919999999999 151.30774235523745 L 672.448 151.46389069616134 L 677.504 149.5901106050748 L 682.56 143.7345478204294 L 687.616 146.23292127521142 L 692.672 148.57514638906963 L 697.728 146.38906961613532 L 702.784 149.5901106050748 L 707.84 152.1665582303188 L 712.896 153.64996746909566 L 717.952 154.11841249186728 L 723.008 151.77618737800907 L 728.064 151.3858165256994 L 733.12 153.41574495770982 L 738.1759999999999 149.66818477553676 L 743.232 146.70136629798307 L 748.288 147.3259596616786 L 753.3439999999999 148.3409238776838 L 758.4 150.68314899154197 L 763.456 148.41899804814574 L 768.512 144.82758620689654 L 773.568 146.77944046844505 L 778.624 143.89069616135328 L 783.68 145.68640208197792 L 788.736 148.73129472999352 L 793.792 150.29277813923227 L 798.848 149.51203643461287 L 803.904 152.71307742355236 L 808.96 151.46389069616134 L 814.016 144.3591411841249 L 819.072 147.24788549121666 L 824.1279999999999 151.22966818477553 L 829.184 151.62003903708523 L 834.24 152.71307742355236 L 839.2959999999999 151.5419648666233 L 844.352 153.41574495770982 L 849.408 150.5270006506181 L 854.4639999999999 150.05855562784643 L 859.52 147.5601821730644 L 864.576 148.8874430709174 L 869.632 147.24788549121666 L 874.688 147.24788549121666 L 879.744 148.02862719583604 L 884.8 144.43721535458684 L 889.856 144.281067013663 L 894.912 142.32921275211453 L 899.968 142.0949902407287 L 905.024 141.3142485361093 L 910.0799999999999 142.5634352635003 L 915.136 145.68640208197792 L 920.192 141.9388418998048 L 925.2479999999999 145.7644762524398 L 930.304 145.2960312296682 L 935.36 146.5452179570592 L 940.4159999999999 147.01366297983083 L 945.472 144.90566037735852 L 950.528 142.48536109303842 L 955.584 142.32921275211453 L 960.64 141.1581001951854 L 965.696 141.0800260247235 L 970.752 141.3142485361093 L 975.808 141.0800260247235 L 980.864 142.40728692257642 L 985.92 145.37410540013013 L 990.976 143.26610279765777 L 996.0319999999999 146.31099544567337 L 1001.088 146.31099544567337 L 1006.144 142.8757319453481 L 1011.1999999999999 142.95380611581 L 1016.256 141.7826935588809 L 1021.312 140.22121014964216 L 1026.368 138.65972674040339 L 1031.424 140.68965517241378 L 1036.48 140.2992843201041 L 1041.536 141.39232270657124 L 1046.5919999999999 142.40728692257642 L 1051.648 142.0949902407287 L 1056.704 142.01691607026675 L 1061.76 140.2992843201041 L 1066.816 141.0800260247235 L 1071.872 140.61158100195183 L 1076.9279999999999 139.98698763825632 L 1081.984 138.8939492517892 L 1087.04 140.53350683148992 L 1092.096 139.44046844502276 L 1097.152 140.14313597918022 L 1102.208 140.14313597918022 L 1107.264 138.50357839947952 L 1112.32 136.70787247885488 L 1117.376 136.629798308393 L 1122.432 135.14638906961613 L 1127.488 137.02016916070266 L 1132.5439999999999 136.70787247885488 L 1137.6 135.92713077423554 L 1142.656 136.78594664931686 L 1147.712 128.8223812621991 L 1152.768 123.59141184124915 L 1157.824 134.05335068314895 L 1162.8799999999999 135.22446324007805 L 1167.936 136.00520494469743 L 1172.992 133.81912817176317 L 1178.048 134.99024072869224 L 1183.104 135.22446324007805 L 1188.16 127.65126870526997 L 1193.216 119.29733246584256 L 1198.272 121.09303838646713 L 1203.328 112.0364346128822 L 1208.384 110.63109954456729 L 1213.44 111.80221210149645 L 1218.4959999999999 105.40013012361746 L 1223.552 101.5744957709824 L 1228.608 104.54131424853611 L 1233.664 101.10605074821083 L 1238.72 98.52960312296679 L 1243.776 96.4996746909564 L 1248.8319999999999 99.9349381912817 L 1253.888 102.43331164606371 L 1258.944 105.00975927130779 L 1264 104.77553675992195" stroke="#7cb5ec" stroke-width="2" zIndex="1" stroke-linejoin="round" stroke-linecap="round"></path><path fill="none" d="M -15.056000000000001 119.8438516590761 L -5.056 119.8438516590761 L 0 120 L 5.056 116.72088484059856 L 10.112 120.46844502277162 L 15.168 124.13793103448275 L 20.224 126.55823031880287 L 25.28 127.96356538711777 L 30.336 131.47690305790502 L 35.391999999999996 127.72934287573193 L 40.448 127.65126870526997 L 45.504 132.72608978529604 L 50.56 133.03838646714377 L 55.616 133.11646063760577 L 60.672 129.21275211450876 L 65.728 130.93038386467143 L 70.78399999999999 132.10149642160053 L 75.84 137.878985035784 L 80.896 137.0982433311646 L 85.952 137.48861418347428 L 91.008 130.8523096942095 L 96.064 131.78919973975275 L 101.12 128.51008458035136 L 106.176 134.36564736499676 L 111.232 131.32075471698113 L 116.288 132.56994144437215 L 121.344 130.93038386467143 L 126.39999999999999 125.62134027325959 L 131.456 127.02667534157449 L 136.512 120.31229668184777 L 141.56799999999998 118.5165907612232 L 146.624 124.68445022771635 L 151.68 120.31229668184777 L 156.736 126.8705270006506 L 161.792 125.62134027325959 L 166.84799999999998 124.45022771633052 L 171.904 126.48015614834092 L 176.96 121.17111255692909 L 182.016 121.4053350683149 L 187.072 119.8438516590761 L 192.128 120.31229668184777 L 197.184 124.37215354586858 L 202.24 125.77748861418347 L 207.296 127.80741704619389 L 212.352 131.24268054651918 L 217.408 136.4736499674691 L 222.464 130.54001301236173 L 227.51999999999998 130.14964216005203 L 232.576 128.43201040988936 L 237.632 122.26415094339622 L 242.688 120.6245933636955 L 247.744 124.84059856864019 L 252.79999999999998 131.39882888744302 L 257.856 132.41379310344826 L 262.912 134.91216655823033 L 267.968 132.33571893298637 L 273.024 127.65126870526997 L 278.08 128.58815875081325 L 283.13599999999997 129.91541964866627 L 288.192 130.38386467143786 L 293.248 132.10149642160053 L 298.304 127.72934287573193 L 303.36 126.16785946649316 L 308.416 123.74756018217303 L 313.472 123.2010409889395 L 318.528 121.87378009108653 L 323.584 122.49837345478203 L 328.64 122.73259596616786 L 333.69599999999997 124.76252439817827 L 338.752 124.21600520494471 L 343.808 119.68770331815222 L 348.864 118.75081327260897 L 353.92 120 L 358.976 119.53155497722832 L 364.032 121.56148340923878 L 369.08799999999997 123.74756018217303 L 374.144 121.4053350683149 L 379.2 120.39037085230969 L 384.256 120.85881587508133 L 389.312 120.70266753415746 L 394.368 123.27911515940143 L 399.424 119.37540663630445 L 404.48 122.81067013662978 L 409.536 122.73259596616786 L 414.592 115.31554977228366 L 419.64799999999997 118.36044242029931 L 424.704 120.15614834092389 L 429.76 119.60962914769028 L 434.816 119.68770331815222 L 439.872 118.4385165907612 L 444.928 116.3305139882889 L 449.984 116.3305139882889 L 455.03999999999996 116.56473649967467 L 460.096 117.57970071567988 L 465.152 114.45673389720234 L 470.20799999999997 116.48666232921275 L 475.264 119.68770331815222 L 480.32 122.73259596616786 L 485.376 124.52830188679246 L 490.432 124.52830188679246 L 495.488 127.65126870526997 L 500.544 129.75927130774238 L 505.59999999999997 128.43201040988936 L 510.656 126.8705270006506 L 515.712 125.54326610279763 L 520.768 126.94860117111253 L 525.824 127.49512036434612 L 530.88 131.39882888744302 L 535.936 133.74105400130122 L 540.992 133.97527651268706 L 546.048 132.02342225113856 L 551.104 129.60312296681846 L 556.16 129.75927130774238 L 561.216 128.97852960312298 L 566.2719999999999 129.68119713728044 L 571.328 136.39557579700715 L 576.384 141.39232270657124 L 581.4399999999999 141.0019518542615 L 586.496 142.17306441119064 L 591.552 142.32921275211453 L 596.608 139.75276512687051 L 601.664 137.17631750162656 L 606.72 129.52504879635654 L 611.776 129.68119713728044 L 616.832 128.6662329212752 L 621.888 126.8705270006506 L 626.944 132.96031229668188 L 632 135.0683148991542 L 637.056 134.91216655823033 L 642.112 139.6746909564086 L 647.168 148.49707221860768 L 652.2239999999999 150.44892648015616 L 657.28 151.85426154847107 L 662.336 152.9472999349382 L 667.3919999999999 151.30774235523745 L 672.448 151.46389069616134 L 677.504 149.5901106050748 L 682.56 143.7345478204294 L 687.616 146.23292127521142 L 692.672 148.57514638906963 L 697.728 146.38906961613532 L 702.784 149.5901106050748 L 707.84 152.1665582303188 L 712.896 153.64996746909566 L 717.952 154.11841249186728 L 723.008 151.77618737800907 L 728.064 151.3858165256994 L 733.12 153.41574495770982 L 738.1759999999999 149.66818477553676 L 743.232 146.70136629798307 L 748.288 147.3259596616786 L 753.3439999999999 148.3409238776838 L 758.4 150.68314899154197 L 763.456 148.41899804814574 L 768.512 144.82758620689654 L 773.568 146.77944046844505 L 778.624 143.89069616135328 L 783.68 145.68640208197792 L 788.736 148.73129472999352 L 793.792 150.29277813923227 L 798.848 149.51203643461287 L 803.904 152.71307742355236 L 808.96 151.46389069616134 L 814.016 144.3591411841249 L 819.072 147.24788549121666 L 824.1279999999999 151.22966818477553 L 829.184 151.62003903708523 L 834.24 152.71307742355236 L 839.2959999999999 151.5419648666233 L 844.352 153.41574495770982 L 849.408 150.5270006506181 L 854.4639999999999 150.05855562784643 L 859.52 147.5601821730644 L 864.576 148.8874430709174 L 869.632 147.24788549121666 L 874.688 147.24788549121666 L 879.744 148.02862719583604 L 884.8 144.43721535458684 L 889.856 144.281067013663 L 894.912 142.32921275211453 L 899.968 142.0949902407287 L 905.024 141.3142485361093 L 910.0799999999999 142.5634352635003 L 915.136 145.68640208197792 L 920.192 141.9388418998048 L 925.2479999999999 145.7644762524398 L 930.304 145.2960312296682 L 935.36 146.5452179570592 L 940.4159999999999 147.01366297983083 L 945.472 144.90566037735852 L 950.528 142.48536109303842 L 955.584 142.32921275211453 L 960.64 141.1581001951854 L 965.696 141.0800260247235 L 970.752 141.3142485361093 L 975.808 141.0800260247235 L 980.864 142.40728692257642 L 985.92 145.37410540013013 L 990.976 143.26610279765777 L 996.0319999999999 146.31099544567337 L 1001.088 146.31099544567337 L 1006.144 142.8757319453481 L 1011.1999999999999 142.95380611581 L 1016.256 141.7826935588809 L 1021.312 140.22121014964216 L 1026.368 138.65972674040339 L 1031.424 140.68965517241378 L 1036.48 140.2992843201041 L 1041.536 141.39232270657124 L 1046.5919999999999 142.40728692257642 L 1051.648 142.0949902407287 L 1056.704 142.01691607026675 L 1061.76 140.2992843201041 L 1066.816 141.0800260247235 L 1071.872 140.61158100195183 L 1076.9279999999999 139.98698763825632 L 1081.984 138.8939492517892 L 1087.04 140.53350683148992 L 1092.096 139.44046844502276 L 1097.152 140.14313597918022 L 1102.208 140.14313597918022 L 1107.264 138.50357839947952 L 1112.32 136.70787247885488 L 1117.376 136.629798308393 L 1122.432 135.14638906961613 L 1127.488 137.02016916070266 L 1132.5439999999999 136.70787247885488 L 1137.6 135.92713077423554 L 1142.656 136.78594664931686 L 1147.712 128.8223812621991 L 1152.768 123.59141184124915 L 1157.824 134.05335068314895 L 1162.8799999999999 135.22446324007805 L 1167.936 136.00520494469743 L 1172.992 133.81912817176317 L 1178.048 134.99024072869224 L 1183.104 135.22446324007805 L 1188.16 127.65126870526997 L 1193.216 119.29733246584256 L 1198.272 121.09303838646713 L 1203.328 112.0364346128822 L 1208.384 110.63109954456729 L 1213.44 111.80221210149645 L 1218.4959999999999 105.40013012361746 L 1223.552 101.5744957709824 L 1228.608 104.54131424853611 L 1233.664 101.10605074821083 L 1238.72 98.52960312296679 L 1243.776 96.4996746909564 L 1248.8319999999999 99.9349381912817 L 1253.888 102.43331164606371 L 1258.944 105.00975927130779 L 1264 104.77553675992195 L 1274 104.77553675992195" stroke-linejoin="round" visibility="visible" stroke="rgba(192,192,192,0.0001)" stroke-width="22" zIndex="2" class=" highcharts-tracker" style=""></path></g><g class="highcharts-markers highcharts-tracker" visibility="visible" zIndex="0.1" transform="translate(10,45) scale(1 1)" clip-path="none" style=""><path fill="#7cb5ec" d="M 141.56799999999998 114.5165907612232 C 146.896 114.5165907612232 146.896 122.5165907612232 141.56799999999998 122.5165907612232 C 136.23999999999998 122.5165907612232 136.23999999999998 114.5165907612232 141.56799999999998 114.5165907612232 Z" stroke="#FFFFFF" stroke-width="1" visibility="hidden"></path></g><g class="highcharts-series" visibility="visible" zIndex="0.1" transform="translate(10,45) scale(1 1)" clip-path="url(http://www.highcharts.com/stock/demo/compare#highcharts-2)"><path fill="none" d="M -5.056 120.56369627708058 L 0 120 L 5.056 121.60274836990813 L 10.112 125.17422702096333 L 15.168 127.29860478160275 L 20.224 130.28114702376774 L 25.28 136.9950220851153 L 30.336 136.88564818060718 L 35.391999999999996 123.88698029867487 L 40.448 125.70006310032952 L 45.504 119.98317324546029 L 50.56 122.18747809016335 L 55.616 123.46210474654703 L 60.672 119.26382948888734 L 65.728 116.36121433078597 L 70.78399999999999 116.96697749421581 L 75.84 124.00897426908784 L 80.896 122.6207670195611 L 85.952 123.23494356026079 L 91.008 119.60457126831662 L 96.064 119.49519736380843 L 101.12 115.87744513776904 L 106.176 119.72656523872959 L 111.232 117.62742760989975 L 116.288 119.3101030638716 L 121.344 119.57512444787216 L 126.39999999999999 118.48138540279042 L 131.456 113.58059314309752 L 136.512 112.89490289560403 L 141.56799999999998 113.59741989763722 L 146.624 116.99221762602538 L 151.68 115.1286545607516 L 156.736 119.89903947276171 L 161.792 119.36899670476056 L 166.84799999999998 118.32573792329802 L 171.904 120.61838322933465 L 176.96 114.32938372011496 L 182.016 110.74528500315503 L 187.072 107.84687653368857 L 192.128 103.41723340110772 L 197.184 105.12514898688917 L 202.24 101.75559139031057 L 207.296 104.14499053495055 L 212.352 105.73511883895395 L 217.408 108.06141765406997 L 222.464 105.50795765266773 L 227.51999999999998 104.69186005749143 L 232.576 104.67923999158663 L 237.632 104.96529481876186 L 242.688 101.57470377900862 L 247.744 105.78980579120801 L 252.79999999999998 105.98752015704969 L 257.856 107.21166654981423 L 262.912 118.12802355745636 L 267.968 118.16588375517068 L 273.024 113.84140783846317 L 278.08 109.68940615578771 L 283.13599999999997 103.07228493304356 L 288.192 104.73392694384071 L 293.248 104.32167145761761 L 298.304 100.99418074738833 L 303.36 98.11259903246162 L 308.416 98.80249596859005 L 313.472 99.24419827525762 L 318.528 98.87821636401878 L 323.584 98.4701675664306 L 328.64 94.97861599943909 L 333.69599999999997 94.267685620136 L 338.752 94.62946084273995 L 343.808 92.31157540489374 L 348.864 87.3603028815817 L 353.92 80.19210544766176 L 358.976 84.01598541681275 L 364.032 78.62721727546801 L 369.08799999999997 81.25219098366401 L 374.144 81.00399635420317 L 379.2 75.76246231508097 L 384.256 76.13265091495481 L 389.312 76.6921405034004 L 394.368 80.73056159293279 L 399.424 80.15424524994745 L 404.48 76.06113720816094 L 409.536 78.05510762111757 L 414.592 75.51426768562013 L 419.64799999999997 73.76007852485449 L 424.704 81.20591740867982 L 429.76 82.1103554651896 L 434.816 78.2402019210545 L 439.872 72.6915796115824 L 444.928 69.20002804459094 L 449.984 65.62434270490078 L 455.03999999999996 64.7283180256608 L 460.096 64.64839094159714 L 465.152 66.07866507747315 L 470.20799999999997 65.48972866858304 L 475.264 69.40615578770243 L 480.32 76.6626936829559 L 485.376 80.17948538175699 L 490.432 73.38988992498068 L 495.488 79.37180116385053 L 500.544 82.61515810138121 L 505.59999999999997 81.80747388347473 L 510.656 77.54189160765614 L 515.712 79.49800182289843 L 520.768 85.47570637313328 L 525.824 91.54175138470171 L 530.88 92.51770314800532 L 535.936 90.38911869873098 L 540.992 95.77788684007572 L 546.048 95.10060996985206 L 551.104 92.97623220921264 L 556.16 86.65357919091358 L 561.216 88.83264390380705 L 566.2719999999999 93.8680501998177 L 571.328 103.45930028745707 L 576.384 93.28332047956252 L 581.4399999999999 101.97854588796184 L 586.496 100.51882493164129 L 591.552 103.58550094650496 L 596.608 105.91600645025588 L 601.664 109.56741218537474 L 606.72 109.05419617191333 L 611.776 117.35819953726427 L 616.832 114.06856902474934 L 621.888 114.81315291313186 L 626.944 125.2667741709318 L 632 133.78531865666406 L 637.056 129.8688915375447 L 642.112 131.64832083011987 L 647.168 131.61887400967538 L 652.2239999999999 134.15130056790298 L 657.28 138.8880319708336 L 662.336 138.02145411203816 L 667.3919999999999 122.01500385613123 L 672.448 124.04262777816729 L 677.504 123.71029937600782 L 682.56 119.5877445137769 L 687.616 112.00308490499896 L 692.672 114.00126200659051 L 697.728 114.77529271541746 L 702.784 112.07459861179275 L 707.84 113.79092757484403 L 712.896 113.4081189090654 L 717.952 117.75783495758255 L 723.008 133.34782303863142 L 728.064 129.79317114211597 L 733.12 135.6783285423824 L 738.1759999999999 137.12122274416316 L 743.232 132.25408399354973 L 748.288 133.25948257729792 L 753.3439999999999 137.1759096964173 L 758.4 145.54722007992706 L 763.456 141.74437355395077 L 768.512 135.40489378111198 L 773.568 138.59777045502352 L 778.624 140.5244338498212 L 783.68 141.53403912220432 L 788.736 141.18067727687026 L 793.792 144.19687302811474 L 798.848 143.33029516931924 L 803.904 145.6313538526257 L 808.96 136.1326509149548 L 814.016 129.0401738764636 L 819.072 131.9554091004697 L 824.1279999999999 138.30750893921333 L 829.184 139.61158241604153 L 834.24 139.01843931851647 L 839.2959999999999 142.4721306877936 L 844.352 139.77564327280373 L 849.408 141.12599032461617 L 854.4639999999999 148.92939774241046 L 859.52 155.58858585150386 L 864.576 147.10369487485102 L 869.632 148.538175699362 L 874.688 149.6655682535231 L 879.744 147.65897777466174 L 884.8 143.77620416462173 L 889.856 170.48867699642432 L 894.912 174.95618032671948 L 899.968 170.7705251349646 L 905.024 167.22007992708404 L 910.0799999999999 167.82584309051393 L 915.136 168.38953936759447 L 920.192 169.17619014232633 L 925.2479999999999 173.9297482997967 L 930.304 167.40096753838606 L 935.36 167.6070952814976 L 940.4159999999999 163.03442473532917 L 945.472 160.19070321811682 L 950.528 158.10839234382667 L 955.584 163.1690387716469 L 960.64 163.54343406015568 L 965.696 163.72011498282268 L 970.752 166.4250157750824 L 975.808 166.49652948187617 L 980.864 171.18278062118765 L 985.92 172.35644675033302 L 990.976 170.3582696487415 L 996.0319999999999 173.72782724532004 L 1001.088 171.1323003575685 L 1006.144 172.98324335693752 L 1011.1999999999999 174.3167636542102 L 1016.256 178.91467433218816 L 1021.312 183.29804388978476 L 1026.368 178.63282619364793 L 1031.424 180.93809156558925 L 1036.48 178.86840075720394 L 1041.536 178.38883825282198 L 1046.5919999999999 175.80172474234033 L 1051.648 179.7728388137138 L 1056.704 179.80649232279325 L 1061.76 178.06071653929746 L 1066.816 173.3660520227161 L 1071.872 168.2927855289911 L 1076.9279999999999 168.81020823108742 L 1081.984 169.82402019210548 L 1087.04 169.55058543083499 L 1092.096 165.6888452639697 L 1097.152 164.98632826193648 L 1102.208 166.01276028885928 L 1107.264 169.82402019210548 L 1112.32 173.78672088620908 L 1117.376 179.57091775923718 L 1122.432 179.20072915936336 L 1127.488 178.27525765967886 L 1132.5439999999999 180.07151370679378 L 1137.6 181.97293696978193 L 1142.656 180.70672369066816 L 1147.712 180.38280866577855 L 1152.768 176.71878286475493 L 1157.824 177.2908925191054 L 1162.8799999999999 179.19652247072844 L 1167.936 183.38217766248334 L 1172.992 180.6941036247634 L 1178.048 190.5545817850382 L 1183.104 195.07677206758746 L 1188.16 195.71618874009675 L 1193.216 192.29194419126412 L 1198.272 189.15375446960667 L 1203.328 189.43560260814695 L 1208.384 188.20724952674752 L 1213.44 184.49695015073968 L 1218.4959999999999 179.06190843441073 L 1223.552 173.73624062258995 L 1228.608 175.20437495618032 L 1233.664 172.58360793661922 L 1238.72 170.70742480544067 L 1243.776 166.19364790016127 L 1248.8319999999999 167.05601907032178 L 1253.888 164.87695435742836 L 1258.944 167.8510832223235 L 1264 169.4496249035967" stroke="#434348" stroke-width="2" zIndex="1" stroke-linejoin="round" stroke-linecap="round"></path><path fill="none" d="M -15.056000000000001 120.56369627708058 L -5.056 120.56369627708058 L 0 120 L 5.056 121.60274836990813 L 10.112 125.17422702096333 L 15.168 127.29860478160275 L 20.224 130.28114702376774 L 25.28 136.9950220851153 L 30.336 136.88564818060718 L 35.391999999999996 123.88698029867487 L 40.448 125.70006310032952 L 45.504 119.98317324546029 L 50.56 122.18747809016335 L 55.616 123.46210474654703 L 60.672 119.26382948888734 L 65.728 116.36121433078597 L 70.78399999999999 116.96697749421581 L 75.84 124.00897426908784 L 80.896 122.6207670195611 L 85.952 123.23494356026079 L 91.008 119.60457126831662 L 96.064 119.49519736380843 L 101.12 115.87744513776904 L 106.176 119.72656523872959 L 111.232 117.62742760989975 L 116.288 119.3101030638716 L 121.344 119.57512444787216 L 126.39999999999999 118.48138540279042 L 131.456 113.58059314309752 L 136.512 112.89490289560403 L 141.56799999999998 113.59741989763722 L 146.624 116.99221762602538 L 151.68 115.1286545607516 L 156.736 119.89903947276171 L 161.792 119.36899670476056 L 166.84799999999998 118.32573792329802 L 171.904 120.61838322933465 L 176.96 114.32938372011496 L 182.016 110.74528500315503 L 187.072 107.84687653368857 L 192.128 103.41723340110772 L 197.184 105.12514898688917 L 202.24 101.75559139031057 L 207.296 104.14499053495055 L 212.352 105.73511883895395 L 217.408 108.06141765406997 L 222.464 105.50795765266773 L 227.51999999999998 104.69186005749143 L 232.576 104.67923999158663 L 237.632 104.96529481876186 L 242.688 101.57470377900862 L 247.744 105.78980579120801 L 252.79999999999998 105.98752015704969 L 257.856 107.21166654981423 L 262.912 118.12802355745636 L 267.968 118.16588375517068 L 273.024 113.84140783846317 L 278.08 109.68940615578771 L 283.13599999999997 103.07228493304356 L 288.192 104.73392694384071 L 293.248 104.32167145761761 L 298.304 100.99418074738833 L 303.36 98.11259903246162 L 308.416 98.80249596859005 L 313.472 99.24419827525762 L 318.528 98.87821636401878 L 323.584 98.4701675664306 L 328.64 94.97861599943909 L 333.69599999999997 94.267685620136 L 338.752 94.62946084273995 L 343.808 92.31157540489374 L 348.864 87.3603028815817 L 353.92 80.19210544766176 L 358.976 84.01598541681275 L 364.032 78.62721727546801 L 369.08799999999997 81.25219098366401 L 374.144 81.00399635420317 L 379.2 75.76246231508097 L 384.256 76.13265091495481 L 389.312 76.6921405034004 L 394.368 80.73056159293279 L 399.424 80.15424524994745 L 404.48 76.06113720816094 L 409.536 78.05510762111757 L 414.592 75.51426768562013 L 419.64799999999997 73.76007852485449 L 424.704 81.20591740867982 L 429.76 82.1103554651896 L 434.816 78.2402019210545 L 439.872 72.6915796115824 L 444.928 69.20002804459094 L 449.984 65.62434270490078 L 455.03999999999996 64.7283180256608 L 460.096 64.64839094159714 L 465.152 66.07866507747315 L 470.20799999999997 65.48972866858304 L 475.264 69.40615578770243 L 480.32 76.6626936829559 L 485.376 80.17948538175699 L 490.432 73.38988992498068 L 495.488 79.37180116385053 L 500.544 82.61515810138121 L 505.59999999999997 81.80747388347473 L 510.656 77.54189160765614 L 515.712 79.49800182289843 L 520.768 85.47570637313328 L 525.824 91.54175138470171 L 530.88 92.51770314800532 L 535.936 90.38911869873098 L 540.992 95.77788684007572 L 546.048 95.10060996985206 L 551.104 92.97623220921264 L 556.16 86.65357919091358 L 561.216 88.83264390380705 L 566.2719999999999 93.8680501998177 L 571.328 103.45930028745707 L 576.384 93.28332047956252 L 581.4399999999999 101.97854588796184 L 586.496 100.51882493164129 L 591.552 103.58550094650496 L 596.608 105.91600645025588 L 601.664 109.56741218537474 L 606.72 109.05419617191333 L 611.776 117.35819953726427 L 616.832 114.06856902474934 L 621.888 114.81315291313186 L 626.944 125.2667741709318 L 632 133.78531865666406 L 637.056 129.8688915375447 L 642.112 131.64832083011987 L 647.168 131.61887400967538 L 652.2239999999999 134.15130056790298 L 657.28 138.8880319708336 L 662.336 138.02145411203816 L 667.3919999999999 122.01500385613123 L 672.448 124.04262777816729 L 677.504 123.71029937600782 L 682.56 119.5877445137769 L 687.616 112.00308490499896 L 692.672 114.00126200659051 L 697.728 114.77529271541746 L 702.784 112.07459861179275 L 707.84 113.79092757484403 L 712.896 113.4081189090654 L 717.952 117.75783495758255 L 723.008 133.34782303863142 L 728.064 129.79317114211597 L 733.12 135.6783285423824 L 738.1759999999999 137.12122274416316 L 743.232 132.25408399354973 L 748.288 133.25948257729792 L 753.3439999999999 137.1759096964173 L 758.4 145.54722007992706 L 763.456 141.74437355395077 L 768.512 135.40489378111198 L 773.568 138.59777045502352 L 778.624 140.5244338498212 L 783.68 141.53403912220432 L 788.736 141.18067727687026 L 793.792 144.19687302811474 L 798.848 143.33029516931924 L 803.904 145.6313538526257 L 808.96 136.1326509149548 L 814.016 129.0401738764636 L 819.072 131.9554091004697 L 824.1279999999999 138.30750893921333 L 829.184 139.61158241604153 L 834.24 139.01843931851647 L 839.2959999999999 142.4721306877936 L 844.352 139.77564327280373 L 849.408 141.12599032461617 L 854.4639999999999 148.92939774241046 L 859.52 155.58858585150386 L 864.576 147.10369487485102 L 869.632 148.538175699362 L 874.688 149.6655682535231 L 879.744 147.65897777466174 L 884.8 143.77620416462173 L 889.856 170.48867699642432 L 894.912 174.95618032671948 L 899.968 170.7705251349646 L 905.024 167.22007992708404 L 910.0799999999999 167.82584309051393 L 915.136 168.38953936759447 L 920.192 169.17619014232633 L 925.2479999999999 173.9297482997967 L 930.304 167.40096753838606 L 935.36 167.6070952814976 L 940.4159999999999 163.03442473532917 L 945.472 160.19070321811682 L 950.528 158.10839234382667 L 955.584 163.1690387716469 L 960.64 163.54343406015568 L 965.696 163.72011498282268 L 970.752 166.4250157750824 L 975.808 166.49652948187617 L 980.864 171.18278062118765 L 985.92 172.35644675033302 L 990.976 170.3582696487415 L 996.0319999999999 173.72782724532004 L 1001.088 171.1323003575685 L 1006.144 172.98324335693752 L 1011.1999999999999 174.3167636542102 L 1016.256 178.91467433218816 L 1021.312 183.29804388978476 L 1026.368 178.63282619364793 L 1031.424 180.93809156558925 L 1036.48 178.86840075720394 L 1041.536 178.38883825282198 L 1046.5919999999999 175.80172474234033 L 1051.648 179.7728388137138 L 1056.704 179.80649232279325 L 1061.76 178.06071653929746 L 1066.816 173.3660520227161 L 1071.872 168.2927855289911 L 1076.9279999999999 168.81020823108742 L 1081.984 169.82402019210548 L 1087.04 169.55058543083499 L 1092.096 165.6888452639697 L 1097.152 164.98632826193648 L 1102.208 166.01276028885928 L 1107.264 169.82402019210548 L 1112.32 173.78672088620908 L 1117.376 179.57091775923718 L 1122.432 179.20072915936336 L 1127.488 178.27525765967886 L 1132.5439999999999 180.07151370679378 L 1137.6 181.97293696978193 L 1142.656 180.70672369066816 L 1147.712 180.38280866577855 L 1152.768 176.71878286475493 L 1157.824 177.2908925191054 L 1162.8799999999999 179.19652247072844 L 1167.936 183.38217766248334 L 1172.992 180.6941036247634 L 1178.048 190.5545817850382 L 1183.104 195.07677206758746 L 1188.16 195.71618874009675 L 1193.216 192.29194419126412 L 1198.272 189.15375446960667 L 1203.328 189.43560260814695 L 1208.384 188.20724952674752 L 1213.44 184.49695015073968 L 1218.4959999999999 179.06190843441073 L 1223.552 173.73624062258995 L 1228.608 175.20437495618032 L 1233.664 172.58360793661922 L 1238.72 170.70742480544067 L 1243.776 166.19364790016127 L 1248.8319999999999 167.05601907032178 L 1253.888 164.87695435742836 L 1258.944 167.8510832223235 L 1264 169.4496249035967 L 1274 169.4496249035967" stroke-linejoin="round" visibility="visible" stroke="rgba(192,192,192,0.0001)" stroke-width="22" zIndex="2" class=" highcharts-tracker" style=""></path></g><g class="highcharts-markers highcharts-tracker" visibility="visible" zIndex="0.1" transform="translate(10,45) scale(1 1)" clip-path="none" style=""><path fill="#434348" d="M 141.56799999999998 109.59741989763722 L 145.56799999999998 113.59741989763722 141.56799999999998 117.59741989763722 137.56799999999998 113.59741989763722 Z" stroke="#FFFFFF" stroke-width="1" visibility="hidden"></path></g><g class="highcharts-series" visibility="visible" zIndex="0.1" transform="translate(10,45) scale(1 1)" clip-path="url(http://www.highcharts.com/stock/demo/compare#highcharts-2)"><path fill="none" d="M -5.056 121.7638431704853 L 0 120 L 5.056 123.29693967343479 L 10.112 123.77798781083987 L 15.168 120.9972949190105 L 20.224 114.02796336733695 L 25.28 116.32760812176127 L 30.336 125.18593357885472 L 35.391999999999996 119.82400677899813 L 40.448 125.02949516018644 L 45.504 121.64260339601732 L 50.56 123.91096046670799 L 55.616 128.6549555128247 L 60.672 127.55597562167974 L 65.728 129.9455724668383 L 70.78399999999999 132.82795033080205 L 75.84 136.69197927190947 L 80.896 133.71573835674474 L 85.952 136.9149040185119 L 91.008 132.94136818433657 L 96.064 133.85653293354625 L 101.12 132.98829970993705 L 106.176 137.6618974676531 L 111.232 138.9916240263338 L 116.288 140.55991917348365 L 121.344 141.35775510869212 L 126.39999999999999 139.22237069386958 L 131.456 136.74282175797674 L 136.512 132.56591597953263 L 141.56799999999998 134.1381220871492 L 146.624 138.9486034612 L 151.68 136.49643124857408 L 156.736 140.71244663168528 L 161.792 139.15588436593555 L 166.84799999999998 137.34902063031646 L 171.904 139.30058990320373 L 176.96 133.13691620767196 L 182.016 132.98047778900366 L 187.072 130.10201088550662 L 192.128 126.93804386793992 L 197.184 130.82553857184757 L 202.24 130.81380569044748 L 207.296 132.49942965159858 L 212.352 136.60984910210863 L 217.408 136.88752729524492 L 222.464 134.52530717335333 L 227.51999999999998 135.1510608480266 L 232.576 134.44317700355245 L 237.632 132.86705993546917 L 242.688 128.0565785614184 L 247.744 121.11071277254503 L 252.79999999999998 119.27647231365901 L 257.856 122.38177492422513 L 262.912 122.21751458462339 L 267.968 120.11732881400124 L 273.024 111.66965420591205 L 278.08 112.70996969005637 L 283.13599999999997 112.44793533878692 L 288.192 112.56135319232148 L 293.248 114.09836065573768 L 298.304 109.17837238861907 L 303.36 108.59563927907956 L 308.416 109.48733826548903 L 313.472 108.82638594661537 L 318.528 108.77945442101483 L 323.584 108.91633803734968 L 328.64 101.87269823680867 L 333.69599999999997 98.48971743310625 L 338.752 98.92774500537755 L 343.808 96.84320307662225 L 348.864 95.17322295733797 L 353.92 95.7989766320112 L 358.976 98.15728579343607 L 364.032 95.15757911547115 L 369.08799999999997 95.30619561320603 L 374.144 94.59048984779847 L 379.2 98.27070364697059 L 384.256 95.13020239220415 L 389.312 90.92200893002638 L 394.368 93.39764690545252 L 399.424 92.06400938630512 L 404.48 93.64794837532185 L 409.536 93.77309911025645 L 414.592 86.46742495844603 L 419.64799999999997 83.8275266434182 L 424.704 85.93162337450707 L 429.76 89.28722745494244 L 434.816 89.79956327608119 L 439.872 83.87054720855198 L 444.928 82.44695759867031 L 449.984 82.32962878466898 L 455.03999999999996 79.08353159730146 L 460.096 75.4776260469967 L 465.152 75.2351464980608 L 470.20799999999997 72.9394127041032 L 475.264 66.92044454583973 L 480.32 67.0064856761073 L 485.376 65.32477267542285 L 490.432 64.13584069354366 L 495.488 64.91803278688525 L 500.544 62.07085356712187 L 505.59999999999997 63.944203630674934 L 510.656 61.78926441351888 L 515.712 59.618681354495976 L 520.768 59.77511977316428 L 525.824 63.61177199100476 L 530.88 68.98934263272821 L 535.936 68.80552749079297 L 540.992 66.09914284783105 L 546.048 68.73121924192546 L 551.104 70.20565133787434 L 556.16 68.75077404425903 L 561.216 64.53084770068116 L 566.2719999999999 88.18824756379752 L 571.328 93.35462634031873 L 576.384 94.57484600593165 L 581.4399999999999 93.91780464752466 L 586.496 95.11064758987061 L 591.552 94.93074340840204 L 596.608 95.95150409021284 L 601.664 93.93735944985823 L 606.72 91.08626926962813 L 611.776 90.95720757422677 L 616.832 92.89704396571389 L 621.888 93.3820030635857 L 626.944 99.09200534497927 L 632 104.8919597171072 L 637.056 100.69158817586282 L 642.112 99.56914252191768 L 647.168 102.24815044161264 L 652.2239999999999 104.7902747449728 L 657.28 106.85917283186131 L 662.336 106.89046051559495 L 667.3919999999999 98.66571065410815 L 672.448 97.97738161196756 L 677.504 99.58087540331778 L 682.56 98.7595737053091 L 687.616 101.42684874360395 L 692.672 97.68797053743114 L 697.728 92.61936577257765 L 702.784 89.40455626894371 L 707.84 86.87025388651696 L 712.896 88.09047355212985 L 717.952 89.74089886908061 L 723.008 90.99631717889386 L 728.064 89.70178926441349 L 733.12 92.40817390737541 L 738.1759999999999 91.93494769090375 L 743.232 87.45298699605647 L 748.288 87.18704168432029 L 753.3439999999999 85.17680800443239 L 758.4 85.46621907896878 L 763.456 78.10579148062448 L 768.512 77.9923736270899 L 773.568 78.36782583189387 L 778.624 77.48785972688458 L 783.68 80.11993612097902 L 788.736 82.51735488707104 L 793.792 82.76374539647361 L 798.848 83.77277319688423 L 803.904 86.22885636997685 L 808.96 83.34647850601311 L 814.016 77.13978424534758 L 819.072 76.97552390574583 L 824.1279999999999 71.38285043835347 L 829.184 72.64217970863342 L 834.24 73.2092689763061 L 839.2959999999999 71.32418603135287 L 844.352 70.01010331453898 L 849.408 70.59283642407848 L 854.4639999999999 77.13978424534758 L 859.52 76.48274288694068 L 864.576 80.29201838151417 L 869.632 81.80556008213011 L 874.688 84.46892415995828 L 879.744 85.11032167649839 L 884.8 70.00228139360559 L 889.856 65.18006713815464 L 894.912 65.242642505622 L 899.968 66.39246488283413 L 905.024 65.23873154515533 L 910.0799999999999 65.18006713815464 L 915.136 64.45262849134699 L 920.192 56.66590620213145 L 925.2479999999999 63.15027865593322 L 930.304 60.522113222305535 L 935.36 58.7895577355539 L 940.4159999999999 57.31121467913826 L 945.472 52.84489782615782 L 950.528 53.99863116383668 L 955.584 54.671316364110396 L 960.64 53.82654890330147 L 965.696 51.88671251181435 L 970.752 49.903855555193445 L 975.808 44.444154743669145 L 980.864 50.07202685526187 L 985.92 48.87136199198255 L 990.976 47.23658051689861 L 996.0319999999999 50.732979174135494 L 1001.088 50.98328064400485 L 1006.144 47.209203793631644 L 1011.1999999999999 46.65384740735911 L 1016.256 44.70227813447181 L 1021.312 38.71459765994197 L 1026.368 32.02685526187133 L 1031.424 34.85056871883458 L 1036.48 34.37343154189617 L 1041.536 34.79581527230059 L 1046.5919999999999 33.50519831828703 L 1051.648 36.32500081478338 L 1056.704 37.22452172212624 L 1061.76 38.69895381807518 L 1066.816 41.53048919597168 L 1071.872 44.076524459798605 L 1076.9279999999999 42.69595541505069 L 1081.984 41.370139816836684 L 1087.04 42.719421177850904 L 1092.096 43.09096242218823 L 1097.152 43.35299677345759 L 1102.208 42.26574976371279 L 1107.264 46.082847179219755 L 1112.32 49.39543069452134 L 1117.376 46.65775836782578 L 1122.432 42.023270214776915 L 1127.488 44.698367174005085 L 1132.5439999999999 49.05126617345104 L 1137.6 53.75224065443405 L 1142.656 56.95922823713457 L 1147.712 55.864159306456344 L 1152.768 50.963725841671305 L 1157.824 50.88159567187043 L 1162.8799999999999 51.01456832773849 L 1167.936 54.1902682267054 L 1172.992 49.71612945279142 L 1178.048 53.94387771730274 L 1183.104 60.455626894371505 L 1188.16 47.174005149431224 L 1193.216 47.08014209823028 L 1198.272 44.03350389466479 L 1203.328 41.86292083564183 L 1208.384 43.56418863865983 L 1213.44 46.56780627709156 L 1218.4959999999999 39.66887201381874 L 1223.552 37.5139327966626 L 1228.608 39.13307042987975 L 1233.664 35.542808721441844 L 1238.72 29.24225140957526 L 1243.776 23.051200990776664 L 1248.8319999999999 24.740735912394456 L 1253.888 18.326760746993443 L 1258.944 19.16761724733564 L 1264 15.745526838966128" stroke="#f158e4" stroke-width="2" zIndex="1" stroke-linejoin="round" stroke-linecap="round"></path><path fill="none" d="M -15.056000000000001 121.7638431704853 L -5.056 121.7638431704853 L 0 120 L 5.056 123.29693967343479 L 10.112 123.77798781083987 L 15.168 120.9972949190105 L 20.224 114.02796336733695 L 25.28 116.32760812176127 L 30.336 125.18593357885472 L 35.391999999999996 119.82400677899813 L 40.448 125.02949516018644 L 45.504 121.64260339601732 L 50.56 123.91096046670799 L 55.616 128.6549555128247 L 60.672 127.55597562167974 L 65.728 129.9455724668383 L 70.78399999999999 132.82795033080205 L 75.84 136.69197927190947 L 80.896 133.71573835674474 L 85.952 136.9149040185119 L 91.008 132.94136818433657 L 96.064 133.85653293354625 L 101.12 132.98829970993705 L 106.176 137.6618974676531 L 111.232 138.9916240263338 L 116.288 140.55991917348365 L 121.344 141.35775510869212 L 126.39999999999999 139.22237069386958 L 131.456 136.74282175797674 L 136.512 132.56591597953263 L 141.56799999999998 134.1381220871492 L 146.624 138.9486034612 L 151.68 136.49643124857408 L 156.736 140.71244663168528 L 161.792 139.15588436593555 L 166.84799999999998 137.34902063031646 L 171.904 139.30058990320373 L 176.96 133.13691620767196 L 182.016 132.98047778900366 L 187.072 130.10201088550662 L 192.128 126.93804386793992 L 197.184 130.82553857184757 L 202.24 130.81380569044748 L 207.296 132.49942965159858 L 212.352 136.60984910210863 L 217.408 136.88752729524492 L 222.464 134.52530717335333 L 227.51999999999998 135.1510608480266 L 232.576 134.44317700355245 L 237.632 132.86705993546917 L 242.688 128.0565785614184 L 247.744 121.11071277254503 L 252.79999999999998 119.27647231365901 L 257.856 122.38177492422513 L 262.912 122.21751458462339 L 267.968 120.11732881400124 L 273.024 111.66965420591205 L 278.08 112.70996969005637 L 283.13599999999997 112.44793533878692 L 288.192 112.56135319232148 L 293.248 114.09836065573768 L 298.304 109.17837238861907 L 303.36 108.59563927907956 L 308.416 109.48733826548903 L 313.472 108.82638594661537 L 318.528 108.77945442101483 L 323.584 108.91633803734968 L 328.64 101.87269823680867 L 333.69599999999997 98.48971743310625 L 338.752 98.92774500537755 L 343.808 96.84320307662225 L 348.864 95.17322295733797 L 353.92 95.7989766320112 L 358.976 98.15728579343607 L 364.032 95.15757911547115 L 369.08799999999997 95.30619561320603 L 374.144 94.59048984779847 L 379.2 98.27070364697059 L 384.256 95.13020239220415 L 389.312 90.92200893002638 L 394.368 93.39764690545252 L 399.424 92.06400938630512 L 404.48 93.64794837532185 L 409.536 93.77309911025645 L 414.592 86.46742495844603 L 419.64799999999997 83.8275266434182 L 424.704 85.93162337450707 L 429.76 89.28722745494244 L 434.816 89.79956327608119 L 439.872 83.87054720855198 L 444.928 82.44695759867031 L 449.984 82.32962878466898 L 455.03999999999996 79.08353159730146 L 460.096 75.4776260469967 L 465.152 75.2351464980608 L 470.20799999999997 72.9394127041032 L 475.264 66.92044454583973 L 480.32 67.0064856761073 L 485.376 65.32477267542285 L 490.432 64.13584069354366 L 495.488 64.91803278688525 L 500.544 62.07085356712187 L 505.59999999999997 63.944203630674934 L 510.656 61.78926441351888 L 515.712 59.618681354495976 L 520.768 59.77511977316428 L 525.824 63.61177199100476 L 530.88 68.98934263272821 L 535.936 68.80552749079297 L 540.992 66.09914284783105 L 546.048 68.73121924192546 L 551.104 70.20565133787434 L 556.16 68.75077404425903 L 561.216 64.53084770068116 L 566.2719999999999 88.18824756379752 L 571.328 93.35462634031873 L 576.384 94.57484600593165 L 581.4399999999999 93.91780464752466 L 586.496 95.11064758987061 L 591.552 94.93074340840204 L 596.608 95.95150409021284 L 601.664 93.93735944985823 L 606.72 91.08626926962813 L 611.776 90.95720757422677 L 616.832 92.89704396571389 L 621.888 93.3820030635857 L 626.944 99.09200534497927 L 632 104.8919597171072 L 637.056 100.69158817586282 L 642.112 99.56914252191768 L 647.168 102.24815044161264 L 652.2239999999999 104.7902747449728 L 657.28 106.85917283186131 L 662.336 106.89046051559495 L 667.3919999999999 98.66571065410815 L 672.448 97.97738161196756 L 677.504 99.58087540331778 L 682.56 98.7595737053091 L 687.616 101.42684874360395 L 692.672 97.68797053743114 L 697.728 92.61936577257765 L 702.784 89.40455626894371 L 707.84 86.87025388651696 L 712.896 88.09047355212985 L 717.952 89.74089886908061 L 723.008 90.99631717889386 L 728.064 89.70178926441349 L 733.12 92.40817390737541 L 738.1759999999999 91.93494769090375 L 743.232 87.45298699605647 L 748.288 87.18704168432029 L 753.3439999999999 85.17680800443239 L 758.4 85.46621907896878 L 763.456 78.10579148062448 L 768.512 77.9923736270899 L 773.568 78.36782583189387 L 778.624 77.48785972688458 L 783.68 80.11993612097902 L 788.736 82.51735488707104 L 793.792 82.76374539647361 L 798.848 83.77277319688423 L 803.904 86.22885636997685 L 808.96 83.34647850601311 L 814.016 77.13978424534758 L 819.072 76.97552390574583 L 824.1279999999999 71.38285043835347 L 829.184 72.64217970863342 L 834.24 73.2092689763061 L 839.2959999999999 71.32418603135287 L 844.352 70.01010331453898 L 849.408 70.59283642407848 L 854.4639999999999 77.13978424534758 L 859.52 76.48274288694068 L 864.576 80.29201838151417 L 869.632 81.80556008213011 L 874.688 84.46892415995828 L 879.744 85.11032167649839 L 884.8 70.00228139360559 L 889.856 65.18006713815464 L 894.912 65.242642505622 L 899.968 66.39246488283413 L 905.024 65.23873154515533 L 910.0799999999999 65.18006713815464 L 915.136 64.45262849134699 L 920.192 56.66590620213145 L 925.2479999999999 63.15027865593322 L 930.304 60.522113222305535 L 935.36 58.7895577355539 L 940.4159999999999 57.31121467913826 L 945.472 52.84489782615782 L 950.528 53.99863116383668 L 955.584 54.671316364110396 L 960.64 53.82654890330147 L 965.696 51.88671251181435 L 970.752 49.903855555193445 L 975.808 44.444154743669145 L 980.864 50.07202685526187 L 985.92 48.87136199198255 L 990.976 47.23658051689861 L 996.0319999999999 50.732979174135494 L 1001.088 50.98328064400485 L 1006.144 47.209203793631644 L 1011.1999999999999 46.65384740735911 L 1016.256 44.70227813447181 L 1021.312 38.71459765994197 L 1026.368 32.02685526187133 L 1031.424 34.85056871883458 L 1036.48 34.37343154189617 L 1041.536 34.79581527230059 L 1046.5919999999999 33.50519831828703 L 1051.648 36.32500081478338 L 1056.704 37.22452172212624 L 1061.76 38.69895381807518 L 1066.816 41.53048919597168 L 1071.872 44.076524459798605 L 1076.9279999999999 42.69595541505069 L 1081.984 41.370139816836684 L 1087.04 42.719421177850904 L 1092.096 43.09096242218823 L 1097.152 43.35299677345759 L 1102.208 42.26574976371279 L 1107.264 46.082847179219755 L 1112.32 49.39543069452134 L 1117.376 46.65775836782578 L 1122.432 42.023270214776915 L 1127.488 44.698367174005085 L 1132.5439999999999 49.05126617345104 L 1137.6 53.75224065443405 L 1142.656 56.95922823713457 L 1147.712 55.864159306456344 L 1152.768 50.963725841671305 L 1157.824 50.88159567187043 L 1162.8799999999999 51.01456832773849 L 1167.936 54.1902682267054 L 1172.992 49.71612945279142 L 1178.048 53.94387771730274 L 1183.104 60.455626894371505 L 1188.16 47.174005149431224 L 1193.216 47.08014209823028 L 1198.272 44.03350389466479 L 1203.328 41.86292083564183 L 1208.384 43.56418863865983 L 1213.44 46.56780627709156 L 1218.4959999999999 39.66887201381874 L 1223.552 37.5139327966626 L 1228.608 39.13307042987975 L 1233.664 35.542808721441844 L 1238.72 29.24225140957526 L 1243.776 23.051200990776664 L 1248.8319999999999 24.740735912394456 L 1253.888 18.326760746993443 L 1258.944 19.16761724733564 L 1264 15.745526838966128 L 1274 15.745526838966128" stroke-linejoin="round" visibility="visible" stroke="rgba(192,192,192,0.0001)" stroke-width="22" zIndex="2" class=" highcharts-tracker" style=""></path></g><g class="highcharts-markers highcharts-tracker" visibility="visible" zIndex="0.1" transform="translate(10,45) scale(1 1)" clip-path="none" style=""><path fill="#90ed7d" d="M 137.56799999999998 130.1381220871492 L 145.56799999999998 130.1381220871492 145.56799999999998 138.1381220871492 137.56799999999998 138.1381220871492 Z" stroke="#FFFFFF" stroke-width="1" visibility="hidden"></path></g><g class="highcharts-markers" visibility="visible" zIndex="0.1" transform="translate(24,331) scale(1 1)" clip-path="none"></g></g><g class="highcharts-axis-labels highcharts-xaxis-labels" zIndex="7"><text x="90.896" text-anchor="middle" style="color:#606060;cursor:default;font-size:11px;fill:#606060;$family:function (){return v;
};$constructor:function Boolean() { [native code] };" y="305" opacity="1"><tspan>4. Jun</tspan></text><text x="192.016" text-anchor="middle" style="color:#606060;cursor:default;font-size:11px;fill:#606060;$family:function (){return v;
};$constructor:function Boolean() { [native code] };" y="305" opacity="1"><tspan>2. Jul</tspan></text><text x="288.08" text-anchor="middle" style="color:#606060;cursor:default;font-size:11px;fill:#606060;$family:function (){return v;
};$constructor:function Boolean() { [native code] };" y="305" opacity="1"><tspan>30. Jul</tspan></text><text x="389.2" text-anchor="middle" style="color:#606060;cursor:default;font-size:11px;fill:#606060;$family:function (){return v;
};$constructor:function Boolean() { [native code] };" y="305" opacity="1"><tspan>27. Aug</tspan></text><text x="485.264" text-anchor="middle" style="color:#606060;cursor:default;font-size:11px;fill:#606060;$family:function (){return v;
};$constructor:function Boolean() { [native code] };" y="305" opacity="1"><tspan>24. Sep</tspan></text><text x="586.384" text-anchor="middle" style="color:#606060;cursor:default;font-size:11px;fill:#606060;$family:function (){return v;
};$constructor:function Boolean() { [native code] };" y="305" opacity="1"><tspan>22. Oct</tspan></text><text x="677.3919999999999" text-anchor="middle" style="color:#606060;cursor:default;font-size:11px;fill:#606060;$family:function (){return v;
};$constructor:function Boolean() { [native code] };" y="305" opacity="1"><tspan>19. Nov</tspan></text><text x="773.456" text-anchor="middle" style="color:#606060;cursor:default;font-size:11px;fill:#606060;$family:function (){return v;
};$constructor:function Boolean() { [native code] };" y="305" opacity="1"><tspan>17. Dec</tspan></text><text x="864.4639999999999" text-anchor="middle" style="color:#606060;cursor:default;font-size:11px;fill:#606060;$family:function (){return v;
};$constructor:function Boolean() { [native code] };" y="305" opacity="1"><tspan>14. Jan</tspan></text><text x="960.528" text-anchor="middle" style="color:#606060;cursor:default;font-size:11px;fill:#606060;$family:function (){return v;
};$constructor:function Boolean() { [native code] };" y="305" opacity="1"><tspan>11. Feb</tspan></text><text x="1056.5919999999999" text-anchor="middle" style="color:#606060;cursor:default;font-size:11px;fill:#606060;$family:function (){return v;
};$constructor:function Boolean() { [native code] };" y="305" opacity="1"><tspan>11. Mar</tspan></text><text x="1152.656" text-anchor="middle" style="color:#606060;cursor:default;font-size:11px;fill:#606060;$family:function (){return v;
};$constructor:function Boolean() { [native code] };" y="305" opacity="1"><tspan>8. Apr</tspan></text><text x="1253.776" text-anchor="middle" style="color:#606060;cursor:default;font-size:11px;fill:#606060;$family:function (){return v;
};$constructor:function Boolean() { [native code] };" y="305" opacity="1"><tspan>6. May</tspan></text></g><g class="highcharts-axis-labels highcharts-yaxis-labels" zIndex="7"><text x="1274" text-anchor="end" style="width:404px;color:#606060;cursor:default;font-size:11px;fill:#606060;" y="163" opacity="1">0%</text><text x="1274" text-anchor="end" style="width:404px;color:#606060;cursor:default;font-size:11px;fill:#606060;" y="283" opacity="1">-50%</text><text x="1274" text-anchor="end" style="width:404px;color:#606060;cursor:default;font-size:11px;fill:#606060;" y="223" opacity="1">-25%</text><text x="1274" text-anchor="end" style="width:404px;color:#606060;cursor:default;font-size:11px;fill:#606060;" y="103" opacity="1"><tspan> + 25%</tspan></text><text x="0" text-anchor="end" style="width:404px;color:#606060;cursor:default;font-size:11px;fill:#606060;" y="-9999"><tspan> + 50%</tspan></text></g><g class="highcharts-axis-labels highcharts-yaxis-labels" zIndex="7"></g><g class="highcharts-button" zIndex="7" states="[object Object]" style="cursor:pointer;text-align:center;" transform="translate(48,10)"><rect x="0" y="0" width="32" height="22" strokeWidth="0" fill="#f7f7f7" rx="0" ry="0"></rect><text x="6.6015625" zIndex="1" style="font-weight:normal;color:#444;fill:#444;" y="15">1m</text></g><g class="highcharts-button" zIndex="7" states="[object Object]" style="cursor:pointer;text-align:center;" transform="translate(85,10)"><rect x="0" y="0" width="32" height="22" strokeWidth="0" fill="#f7f7f7" rx="0" ry="0"></rect><text x="6.6015625" zIndex="1" style="font-weight:normal;color:#444;fill:#444;" y="15">3m</text></g><g class="highcharts-button" zIndex="7" states="[object Object]" style="cursor:pointer;text-align:center;" transform="translate(122,10)"><rect x="0" y="0" width="32" height="22" strokeWidth="0" fill="#f7f7f7" rx="0" ry="0"></rect><text x="6.6015625" zIndex="1" style="font-weight:normal;color:#444;fill:#444;" y="15">6m</text></g><g class="highcharts-button" zIndex="7" states="[object Object]" style="cursor:pointer;text-align:center;" transform="translate(159,10)"><rect x="0" y="0" width="32" height="22" strokeWidth="0" fill="#f7f7f7" rx="0" ry="0"></rect><text x="3.96875" zIndex="1" style="font-weight:normal;color:#444;fill:#444;" y="15">YTD</text></g><g class="highcharts-button" zIndex="7" states="[object Object]" style="cursor:pointer;text-align:center;" transform="translate(196,10)"><rect x="0" y="0" width="32" height="22" strokeWidth="0" fill="#e7f0f9" rx="0" ry="0"></rect><text x="9.0703125" zIndex="1" style="font-weight:bold;color:black;fill:black;" y="15">1y</text></g><g class="highcharts-button" zIndex="7" states="[object Object]" style="cursor:pointer;text-align:center;" transform="translate(233,10)"><rect x="0" y="0" width="32" height="22" strokeWidth="0" fill="#f7f7f7" rx="0" ry="0"></rect><text x="8.390625" zIndex="1" style="font-weight:normal;color:#444;fill:#444;" y="15">All</text></g><g class="highcharts-tooltip" zIndex="8" style="cursor:default;padding:0;white-space:nowrap;" transform="translate(168,-9999)" opacity="0" visibility="visible"><path fill="none" d="M 3.5 0.5 L 152.5 0.5 C 155.5 0.5 155.5 0.5 155.5 3.5 L 155.5 73.5 C 155.5 76.5 155.5 76.5 152.5 76.5 L 3.5 76.5 C 0.5 76.5 0.5 76.5 0.5 73.5 L 0.5 3.5 C 0.5 0.5 0.5 0.5 3.5 0.5" isShadow="true" stroke="black" stroke-opacity="0.049999999999999996" stroke-width="5" transform="translate(1, 1)" width="155" height="76"></path><path fill="none" d="M 3.5 0.5 L 152.5 0.5 C 155.5 0.5 155.5 0.5 155.5 3.5 L 155.5 73.5 C 155.5 76.5 155.5 76.5 152.5 76.5 L 3.5 76.5 C 0.5 76.5 0.5 76.5 0.5 73.5 L 0.5 3.5 C 0.5 0.5 0.5 0.5 3.5 0.5" isShadow="true" stroke="black" stroke-opacity="0.09999999999999999" stroke-width="3" transform="translate(1, 1)" width="155" height="76"></path><path fill="none" d="M 3.5 0.5 L 152.5 0.5 C 155.5 0.5 155.5 0.5 155.5 3.5 L 155.5 73.5 C 155.5 76.5 155.5 76.5 152.5 76.5 L 3.5 76.5 C 0.5 76.5 0.5 76.5 0.5 73.5 L 0.5 3.5 C 0.5 0.5 0.5 0.5 3.5 0.5" isShadow="true" stroke="black" stroke-opacity="0.15" stroke-width="1" transform="translate(1, 1)" width="155" height="76"></path><path fill="rgba(249, 249, 249, .85)" d="M 3.5 0.5 L 152.5 0.5 C 155.5 0.5 155.5 0.5 155.5 3.5 L 155.5 73.5 C 155.5 76.5 155.5 76.5 152.5 76.5 L 3.5 76.5 C 0.5 76.5 0.5 76.5 0.5 73.5 L 0.5 3.5 C 0.5 0.5 0.5 0.5 3.5 0.5" stroke="#7cb5ec" stroke-width="1"></path><text x="8" zIndex="1" style="font-size:12px;color:#333333;fill:#333333;" y="21"><tspan style="font-size: 10px">Wednesday, Jun 20, 2012</tspan><tspan style="fill:#7cb5ec" x="8" dy="16">MSFT</tspan><tspan dx="0">: </tspan><tspan style="font-weight:bold" dx="0">30.93</tspan><tspan dx="0"> (+0.62%)</tspan><tspan style="fill:#434348" x="8" dy="16">AAPL</tspan><tspan dx="0">: </tspan><tspan style="font-weight:bold" dx="0">585.74</tspan><tspan dx="0"> (+2.67%)</tspan><tspan style="fill:#90ed7d" x="8" dy="16">GOOG</tspan><tspan dx="0">: </tspan><tspan style="font-weight:bold" dx="0">577.51</tspan><tspan dx="0"> (-5.89%)</tspan></text></g></svg>